<?xml version="1.0" encoding="utf-8"?>
<!-- Generator: Adobe Illustrator 18.0.0, SVG Export Plug-In . SVG Version: 6.00 Build 0)  -->
<!DOCTYPE svg PUBLIC "-//W3C//DTD SVG 1.1//EN" "http://www.w3.org/Graphics/SVG/1.1/DTD/svg11.dtd">
<svg version="1.1" id="Layer_1" xmlns="http://www.w3.org/2000/svg" xmlns:xlink="http://www.w3.org/1999/xlink" x="0px" y="0px"
	 viewBox="0 0 634.6 257.7" enable-background="new 0 0 634.6 257.7" xml:space="preserve">
<path fill="#97D700" d="M128.8,50.1c-43.5,0-78.7,35.3-78.7,78.8c0,43.5,35.2,78.8,78.7,78.8c43.5,0,78.7-35.3,78.7-78.8
	C207.5,85.4,172.3,50.1,128.8,50.1z M113.8,125.3c-1,0-1.8,0.8-1.8,1.8v32.2c0,1-0.8,1.8-1.8,1.8H88.7c-1,0-1.8-0.8-1.8-1.8V98.4
	c0-1,0.8-1.8,1.8-1.8h31.2c1.3,0,2.5,0.7,3.1,1.8l13.8,24.2c0,0,0.2,0.4,0.2,0.9c0,1-0.8,1.8-1.8,1.8H113.8z M179.5,130.7
	l-16.4,28.6c-0.6,1.1-1.8,1.8-3.1,1.8h-24.7c-1,0-1.8-0.8-1.8-1.8c0-0.3,0.1-0.7,0.3-0.9l16-27.7c0.3-0.5,0.5-1.2,0.5-1.8
	c0-0.7-0.2-1.3-0.5-1.8l-16-27.7c-0.2-0.3-0.3-0.6-0.3-0.9c0-1,0.8-1.8,1.8-1.8h24.7c1.3,0,2.5,0.7,3.1,1.8l16.4,28.6
	c0.3,0.5,0.5,1.1,0.5,1.8C179.9,129.5,179.8,130.1,179.5,130.7z"/>
<g>
	<g>
		<path fill="#FFFFFF" d="M277.2,134.8c5.9-2.4,10-8.2,10-14.9c0-8.9-7.2-16.1-16.1-16.1h-21.5c-0.7,0-1.3,0.6-1.3,1.3v47.5
			c0,0.7,0.6,1.3,1.3,1.3h5.4c0.7,0,1.3-0.6,1.3-1.3V136h11.3l10.8,17.4c0.2,0.3,0.6,0.6,1,0.6h7.4c0.7,0,1.3-0.6,1.3-1.3
			c0-0.2,0-0.3-0.1-0.5L277.2,134.8z M271.1,128h-14.8v-16.2h14.8c4.5,0,8.1,3.6,8.1,8.1C279.2,124.3,275.6,128,271.1,128z"/>
	</g>
	<path fill="#FFFFFF" d="M323.2,154.7c-14.2,0-25.8-11.6-25.8-25.8c0-14.2,11.6-26.2,25.8-26.2c14.2,0,25.8,11.9,25.8,26.2
		C349,143.1,337.5,154.7,323.2,154.7z M323.2,110.9c-9.8,0-17.8,8.1-17.8,17.9s8,17.8,17.8,17.8c9.8,0,17.8-8,17.8-17.8
		S333,110.9,323.2,110.9z"/>
	<path fill="#FFFFFF" d="M412.6,123.3c-3,0-5.4,2.4-5.4,5.4c0,3,2.4,5.4,5.4,5.4c3,0,5.4-2.4,5.4-5.4
		C418,125.7,415.6,123.3,412.6,123.3z"/>
	<path fill="#FFFFFF" d="M392.4,111c0.7,0,1.3-0.6,1.3-1.3v-4.6c0-0.7-0.6-1.3-1.3-1.3h-32.9c-0.7,0-1.3,0.6-1.3,1.3v4.6
		c0,0.7,0.6,1.3,1.3,1.3H372v35.7h-12.5c-0.7,0-1.3,0.6-1.3,1.3v4.6c0,0.7,0.6,1.3,1.3,1.3h32.9c0.7,0,1.3-0.6,1.3-1.3V148
		c0-0.7-0.6-1.3-1.3-1.3H380V111L392.4,111z"/>
	<g>
		<path fill="#FFFFFF" d="M453.5,103.8h-17.4c-0.7,0-1.3,0.6-1.3,1.3v47.5c0,0.7,0.6,1.3,1.3,1.3h17.4c13.8,0,25-11.2,25-25
			C478.5,115,467.3,103.8,453.5,103.8z M453.5,145.9h-10.7v-34.1h10.7c9.4,0,17,7.6,17,17C470.5,138.2,462.8,145.9,453.5,145.9z"/>
	</g>
	<g>
		<polygon fill="#FFFFFF" points="530,152.6 530,152.6 530,152.6 		"/>
		<path fill="#FFFFFF" d="M529.9,123c0-11.2-9.1-20.3-20.3-20.3c-11.2,0-20.3,9.2-20.3,20.3v29.6c0,0.7,0.6,1.3,1.3,1.3h5.5
			c0.7,0,1.4-0.6,1.4-1.3V123c0-6.7,5.4-12.1,12.1-12.1c6.7,0,12.1,5.4,12.1,12.1v29.5c0,0.7,0.6,1.3,1.3,1.3h5.5
			c0.7,0,1.3-0.6,1.3-1.3v0L529.9,123z"/>
	</g>
	<g>
		<polygon fill="#FFFFFF" points="584.5,152.6 584.5,152.6 584.5,152.6 		"/>
		<polygon fill="#FFFFFF" points="543.9,152.6 543.9,152.6 543.9,152.6 		"/>
		<path fill="#FFFFFF" d="M584.4,123c0-11.2-9.1-20.3-20.3-20.3c-11.2,0-20.3,9.2-20.3,20.3v29.5v0c0,0.7,0.6,1.3,1.3,1.3h5.5
			c0.7,0,1.3-0.6,1.3-1.3v-13.7h24.3v13.7c0,0.7,0.6,1.3,1.3,1.3h5.5c0.7,0,1.3-0.6,1.3-1.3v0L584.4,123z M552,131.7l0-8.7
			c0-6.7,5.4-12.1,12.1-12.1c6.7,0,12.1,5.4,12.1,12.1l0,8.7H552z"/>
	</g>
</g>
</svg>
